<?xml version="1.0" encoding="utf-8"?>
<!-- Generator: Adobe Illustrator 18.1.1, SVG Export Plug-In . SVG Version: 6.00 Build 0)  -->
<svg version="1.1" id="Layer_1" xmlns="http://www.w3.org/2000/svg" xmlns:xlink="http://www.w3.org/1999/xlink" x="0px" y="0px"
	 viewBox="-383 295 24 24" enable-background="new -383 295 24 24" xml:space="preserve">
<path d="M-364,303l-4,4h3c0,3.3-2.7,6-6,6c-1,0-2-0.3-2.8-0.7l-1.5,1.5c1.2,0.8,2.7,1.2,4.3,1.2c4.4,0,8-3.6,8-8h3L-364,303z
	 M-377,307c0-3.3,2.7-6,6-6c1,0,2,0.3,2.8,0.7l1.5-1.5c-1.2-0.8-2.7-1.2-4.3-1.2c-4.4,0-8,3.6-8,8h-3l4,4l4-4H-377z"/>
<path fill="none" d="M-383,295h24v24h-24V295z"/>
</svg>
