<?xml version="1.0" encoding="utf-8"?>
<!-- Generator: Adobe Illustrator 18.1.1, SVG Export Plug-In . SVG Version: 6.00 Build 0)  -->
<svg version="1.1" id="Layer_1" xmlns="http://www.w3.org/2000/svg" xmlns:xlink="http://www.w3.org/1999/xlink" x="0px" y="0px"
	 viewBox="-388.5 289.5 35 35" enable-background="new -388.5 289.5 35 35" xml:space="preserve">
<path fill="#E59500" d="M-371,289.5c-9.7,0-17.5,7.8-17.5,17.5s7.8,17.5,17.5,17.5c9.7,0,17.5-7.8,17.5-17.5S-361.3,289.5-371,289.5
	z M-370,303.9c0,2.2-1.7,3.9-3.8,4v9.2h-2.5V308c-2.1-0.1-3.8-1.9-3.8-4v-7.1h2v7.1h2v-7.1h2v7.1h2v-7.1h2V303.9z M-361.8,317.2
	h-2.5V309h-2.5v-8.1c0-1.8,2.3-4.1,5.1-4.1V317.2z"/>
<path fill="none" d="M-383,295h24v24h-24V295z"/>
</svg>
